<svg height="682pt" viewBox="-21 -150 682.66922 682" width="682pt" xmlns="http://www.w3.org/2000/svg"><path d="m402.191406 240.023438h-186.371094c-6.910156 0-12.511718 5.601562-12.511718 12.511718v63.597656c0 6.910157 5.601562 12.511719 12.511718 12.511719h186.371094c6.910156 0 12.507813-5.601562 12.507813-12.511719v-63.597656c0-6.910156-5.597657-12.511718-12.507813-12.511718zm-12.511718 63.601562h-161.355469v-38.585938h161.355469zm0 0"/><path d="m52.332031 275.589844 115.601563 1.289062h.140625c6.84375 0 12.429687-5.511718 12.507812-12.371094.070313-6.90625-5.464843-12.570312-12.371093-12.648437l-115.597657-1.289063c-6.863281-.101562-12.570312 5.464844-12.648437 12.371094s5.460937 12.570313 12.367187 12.648438zm0 0"/><path d="m118.242188 295.234375-65.523438-1.289063c-6.855469-.132812-12.617188 5.351563-12.75 12.261719-.136719 6.902344 5.351562 12.617188 12.257812 12.75l65.523438 1.289063c.085938.003906.167969.003906.253906.003906 6.789063 0 12.367188-5.441406 12.5-12.261719.136719-6.910156-5.351562-12.617187-12.261718-12.753906zm0 0"/><path d="m165.71875 295.109375-.613281.140625c-6.722657 1.578125-10.898438 8.308594-9.320313 15.035156 1.351563 5.765625 6.488282 9.65625 12.167969 9.65625.941406 0 1.90625-.113281 2.863281-.335937l.609375-.140625c6.722657-1.578125 10.898438-8.308594 9.320313-15.035156-1.570313-6.722657-8.304688-10.894532-15.027344-9.320313zm0 0"/><path d="m287.902344 16.914062c.949218 0 1.910156-.105468 2.871094-.335937l.613281-.140625c6.722656-1.582031 10.890625-8.316406 9.308593-15.039062-1.582031-6.722657-8.3125-10.894532-15.039062-9.3125l-.609375.140624c-6.722656 1.582032-10.894531 8.316407-9.3125 15.039063 1.359375 5.761719 6.496094 9.648437 12.167969 9.648437zm0 0"/><path d="m536.566406 102.539062c7.101563 6.691407 16.667969 10.804688 27.175782 10.804688 21.886718 0 39.691406-17.800781 39.691406-39.683594 0-21.886718-17.804688-39.6875-39.691406-39.6875-10.507813 0-20.074219 4.109375-27.175782 10.804688-7.109375-6.695313-16.671875-10.804688-27.183594-10.804688-21.882812 0-39.6875 17.800782-39.6875 39.6875 0 21.882813 17.804688 39.683594 39.6875 39.683594 10.511719 0 20.074219-4.113281 27.183594-10.804688zm27.175782-43.554687c8.089843 0 14.671874 6.582031 14.671874 14.675781 0 8.089844-6.574218 14.671875-14.671874 14.671875-8.085938 0-14.667969-6.582031-14.667969-14.671875 0-8.09375 6.582031-14.675781 14.667969-14.675781zm-69.03125 14.675781c0-8.09375 6.582031-14.675781 14.671874-14.675781 8.09375 0 14.671876 6.582031 14.671876 14.675781 0 8.089844-6.582032 14.671875-14.671876 14.671875-8.085937 0-14.671874-6.582031-14.671874-14.671875zm0 0"/><path d="m627.488281-8.171875h-287.851562c-6.902344 0-12.503907 5.601563-12.503907 12.503906 0 6.910157 5.59375 12.511719 12.503907 12.511719h275.347656v263.097656h-157.515625v-19.628906h122.714844c6.910156 0 12.507812-5.59375 12.507812-12.503906v-70.753906c0-6.902344-5.597656-12.503907-12.507812-12.503907h-122.714844v-92.074219c0-6.910156-5.601562-12.507812-12.507812-12.507812h-237.417969v-43.125h28.441406c6.910156 0 12.511719-5.601562 12.511719-12.511719 0-6.910156-5.601563-12.507812-12.511719-12.507812h-40.945313c-6.910156 0-12.511718 5.597656-12.511718 12.507812v55.636719h-170.019532c-6.90625 0-12.507812 5.597656-12.507812 12.507812v288.113282c0 6.90625 5.601562 12.503906 12.507812 12.503906h432.457032c6.902344 0 12.503906-5.59375 12.503906-12.503906v-55.632813h170.023438c6.90625 0 12.511718-5.601562 12.511718-12.511719v-288.113281c-.007812-6.902343-5.605468-12.503906-12.515625-12.503906zm-170.019531 217.816406v-20.078125h110.203125v45.730469h-110.203125zm-25.015625 38.164063v100.273437h-407.4375v-125.929687h407.4375zm0-54.957032h-407.433594v-55.867187h407.433594zm0-80.886718h-407.4375v-26.980469h407.4375zm0 0"/></svg>